<?xml version="1.0" standalone="no"?>
<!DOCTYPE svg PUBLIC "-//W3C//DTD SVG 20010904//EN"
 "http://www.w3.org/TR/2001/REC-SVG-20010904/DTD/svg10.dtd">
<svg version="1.0" xmlns="http://www.w3.org/2000/svg"
 width="176.000000pt" height="161.000000pt" viewBox="0 0 176.000000 161.000000"
 preserveAspectRatio="xMidYMid meet">

<g transform="translate(0.000000,161.000000) scale(0.100000,-0.100000)"
fill="#000000" stroke="none">
<path d="M837 1596 c-60 -22 -101 -60 -135 -124 -21 -40 -44 -67 -68 -81 -23
-14 -34 -27 -32 -39 2 -9 11 -16 19 -14 11 3 10 -1 -3 -14 -12 -13 -21 -14
-30 -7 -30 25 -85 31 -165 18 -93 -15 -117 -28 -139 -73 -8 -18 -22 -36 -29
-39 -21 -7 -65 -88 -65 -118 0 -14 -7 -37 -16 -51 -17 -25 -17 -26 14 -85 1
-4 -8 -9 -21 -13 -33 -8 -142 -189 -161 -268 -6 -26 -5 -27 20 -18 42 16 45
12 23 -30 -16 -29 -21 -57 -20 -109 1 -94 13 -144 61 -242 22 -46 40 -89 40
-95 0 -7 28 -42 62 -78 58 -60 69 -66 150 -91 l86 -27 60 22 c33 12 81 39 107
61 31 25 57 39 76 39 19 0 42 12 69 36 22 20 43 34 47 31 3 -4 26 -44 52 -89
37 -66 51 -84 71 -86 14 -1 202 17 418 42 318 36 397 47 413 62 36 32 24 49
-82 114 -110 69 -223 149 -217 155 2 2 46 -9 98 -25 52 -17 96 -30 100 -30 21
1 -101 60 -125 60 -16 0 -40 3 -53 6 -22 6 -20 9 24 40 53 38 53 41 0 19 -41
-17 -44 -13 -16 22 11 14 20 35 20 47 1 20 1 20 14 -3 l14 -25 7 34 c5 25 9
29 17 19 7 -10 8 -8 5 9 -3 12 -1 20 4 16 5 -3 9 6 9 19 0 35 -20 87 -34 87
-13 0 -109 -62 -145 -94 -16 -14 -22 -16 -19 -6 2 8 31 33 64 56 57 39 107
105 91 121 -5 4 -47 -32 -94 -81 -52 -53 -103 -96 -129 -107 l-42 -19 20 -43
c11 -23 34 -61 51 -84 17 -24 28 -45 26 -47 -2 -2 -61 -7 -131 -11 -90 -5
-128 -4 -128 3 0 18 36 32 82 32 59 0 81 15 46 31 -21 9 -35 8 -74 -5 -59 -20
-54 -20 -54 8 0 30 11 38 84 68 33 13 61 29 63 35 2 6 -38 -10 -89 -35 -51
-26 -97 -48 -102 -51 -6 -2 0 9 12 24 40 51 16 90 -30 48 -18 -16 -18 -16 -12
0 3 10 23 26 43 37 42 23 26 26 -24 6 -39 -17 -43 -12 -17 24 9 14 22 41 27
60 8 25 24 44 59 68 26 17 42 32 34 32 -8 0 -36 -14 -62 -31 -43 -29 -48 -30
-65 -15 -10 9 -27 16 -39 16 -14 0 -29 12 -42 33 -22 35 -26 52 -10 42 6 -4 5
5 -2 19 -12 29 -28 34 -28 11 0 -9 -9 -15 -22 -16 -23 0 -23 0 -2 -9 24 -10
64 -61 64 -82 0 -21 -49 -65 -92 -83 -40 -16 -54 -5 -15 13 21 10 20 10 -8 9
-24 -2 -30 2 -30 18 0 12 9 22 25 26 l25 7 -26 1 c-35 1 -47 17 -40 53 5 24
15 34 41 44 19 7 27 13 18 13 -21 1 -22 5 -6 34 6 12 15 36 19 52 l7 30 1 -35
c1 -19 9 -46 17 -60 11 -17 13 -19 9 -5 -12 36 -17 101 -7 87 7 -10 14 -2 26
30 20 49 87 140 119 161 12 8 33 18 47 22 23 7 22 5 -13 -34 -20 -22 -37 -45
-37 -51 0 -5 11 -20 24 -33 27 -27 43 -86 31 -114 -6 -15 -9 -12 -16 14 -10
34 -61 83 -86 83 -13 0 -13 -3 -3 -16 11 -13 10 -16 -8 -20 -12 -4 -18 -12
-16 -19 3 -8 -4 -18 -15 -25 -27 -14 -30 -70 -3 -70 9 0 28 -3 42 -6 22 -5 21
-3 -7 15 -36 23 -40 33 -20 50 11 8 28 2 76 -29 34 -22 66 -38 71 -35 5 3 17
-8 26 -24 28 -48 57 -54 181 -43 l108 11 -92 -3 c-86 -3 -115 3 -78 18 8 3 22
20 31 39 l16 34 51 -14 c28 -7 63 -13 77 -13 50 0 101 -20 98 -38 -2 -9 -14
-19 -27 -20 -18 -3 -22 0 -18 12 5 11 1 16 -13 16 -15 0 -20 -7 -20 -25 0 -14
5 -25 10 -25 6 0 10 -4 10 -8 0 -15 -117 -42 -180 -42 -33 0 -60 -2 -60 -4 0
-16 14 -36 26 -36 8 0 14 -4 14 -10 0 -5 8 -10 18 -11 11 -1 9 -4 -8 -9 -23
-7 -22 -8 10 -10 35 -1 35 -1 13 -17 -13 -8 -23 -19 -23 -23 0 -14 117 69 149
106 18 19 48 41 69 48 31 11 38 18 40 45 2 17 8 29 13 26 5 -4 9 1 9 10 0 9 8
30 17 46 14 24 15 33 5 49 -6 11 -12 27 -12 35 0 20 -6 19 -41 -6 -20 -14 -29
-29 -29 -49 0 -16 -6 -31 -12 -33 -7 -3 -1 -6 15 -6 23 -1 27 3 27 25 0 19 4
25 15 20 9 -3 15 0 15 9 0 21 -27 19 -40 -2 -11 -17 -11 -17 -6 0 3 10 6 21 6
23 0 10 39 2 49 -10 15 -17 -8 -70 -34 -80 -18 -7 -135 8 -203 26 -32 8 -42
15 -37 26 7 19 -36 83 -53 80 -19 -4 -15 -23 5 -23 22 0 30 -33 9 -41 -8 -3
-22 -1 -32 4 -11 6 -27 6 -45 -1 -21 -8 -31 -8 -43 2 -25 21 -19 49 20 102 19
27 33 53 29 59 -3 5 -1 10 6 10 8 0 7 5 -2 17 -12 14 -12 16 1 11 8 -2 16 -14
18 -26 4 -26 22 -19 22 8 0 10 -9 22 -20 25 -30 10 -26 38 5 33 16 -4 25 -1
25 8 0 17 76 28 128 19 60 -10 154 -58 184 -94 15 -17 41 -60 59 -96 29 -60
31 -68 18 -91 -12 -24 -12 -28 9 -44 12 -10 22 -28 22 -39 0 -19 -3 -20 -20
-11 -23 12 -24 6 -9 -39 9 -24 7 -48 -6 -107 -9 -42 -15 -76 -13 -77 1 -1 16
-13 31 -27 23 -20 27 -21 21 -6 -15 40 15 4 40 -47 14 -28 31 -59 38 -69 18
-25 -6 -96 -38 -110 -23 -11 -24 -13 -7 -19 42 -17 51 -11 64 45 16 72 4 154
-32 222 -16 31 -29 63 -29 73 0 9 -12 40 -25 70 -23 49 -24 56 -10 71 22 24
19 48 -10 74 -22 21 -23 25 -10 36 8 7 15 21 15 31 0 16 5 18 25 13 24 -6 25
-4 25 37 0 28 -8 53 -20 69 -29 37 -24 44 14 21 39 -24 47 -26 40 -8 -3 8 -22
24 -43 35 -21 12 -46 34 -56 48 -9 14 -33 33 -53 41 -33 14 -35 16 -19 28 16
11 8 17 -65 47 -46 19 -93 38 -105 42 -25 8 -30 -3 -10 -23 8 -9 0 -8 -27 3
-43 18 -69 21 -46 6 11 -7 -4 -10 -50 -8 -50 2 -65 6 -65 18 0 11 9 14 33 12
28 -2 33 1 28 16 -8 25 16 54 45 53 162 -3 191 -10 298 -69 58 -32 113 -69
123 -82 48 -65 44 -235 -7 -272 -6 -5 -5 -8 2 -8 7 0 22 19 34 42 19 36 21 53
15 116 -9 116 -29 142 -160 215 -90 50 -116 60 -155 60 -25 -1 -72 4 -103 9
-67 12 -107 1 -133 -38 -20 -31 -35 -22 -35 20 0 144 -183 264 -323 212z m156
-16 c52 -20 94 -54 115 -96 16 -30 18 -102 4 -116 -13 -13 -11 -14 -109 75
-42 37 -59 47 -88 47 -19 0 -35 4 -35 10 0 6 -19 7 -47 3 -44 -6 -47 -5 -34
10 7 10 21 17 31 17 9 0 34 16 54 35 21 19 41 35 46 35 5 0 33 -9 63 -20z
m-25 -136 c55 -27 94 -67 120 -121 15 -31 15 -36 -1 -62 -13 -23 -15 -35 -7
-56 15 -40 12 -55 -11 -55 -30 0 -93 -37 -110 -66 l-14 -24 -48 47 c-34 33
-51 43 -59 35 -7 -7 -3 -14 16 -24 15 -8 34 -29 44 -48 16 -32 16 -38 2 -72
-19 -46 -51 -57 -87 -28 -14 11 -31 20 -38 20 -22 0 -38 28 -31 55 9 37 60 34
109 -6 20 -17 37 -26 37 -20 0 5 -15 21 -32 35 -28 22 -30 26 -13 27 13 0 8 4
-13 10 -33 10 -33 10 -26 57 3 26 11 55 15 64 11 20 -7 33 -64 43 -27 5 -37
12 -37 26 0 23 7 23 76 3 83 -24 86 -11 5 22 -50 20 -78 37 -89 57 -21 35 -10
55 48 85 62 31 140 30 208 -4z m-405 -130 c57 -29 129 -97 148 -139 23 -51 26
-135 4 -135 -8 0 -15 -4 -15 -8 0 -5 -13 -7 -29 -4 -26 4 -29 2 -24 -17 5 -21
43 -31 43 -11 0 6 9 10 20 10 22 0 27 -28 10 -59 -6 -12 -5 -50 2 -110 15
-124 12 -128 -112 -114 -92 11 -92 11 -141 59 -41 40 -51 46 -59 34 -5 -8 -10
-18 -10 -22 0 -5 -4 -8 -10 -8 -5 0 -10 13 -10 30 0 23 -7 33 -29 45 -24 12
-30 23 -33 52 -4 45 -28 58 -28 14 0 -16 -4 -32 -9 -35 -11 -7 -21 17 -21 48
0 12 -6 30 -14 41 -18 27 -29 65 -18 65 5 0 14 -11 20 -25 7 -16 20 -25 34
-25 l21 0 -23 25 c-14 15 -21 31 -17 45 4 16 0 20 -21 20 l-25 0 20 23 c11 12
19 27 16 34 -2 6 6 17 19 24 22 12 22 12 3 19 -18 7 -18 9 8 20 17 9 27 21 27
35 0 37 24 57 86 71 82 17 130 17 167 -2z m832 -59 c71 -19 146 -65 182 -112
20 -26 27 -48 29 -91 3 -47 2 -51 -5 -24 -12 46 -77 141 -104 152 -12 4 -69
16 -127 25 -101 17 -152 34 -165 55 -10 16 123 12 190 -5z m-617 -30 c27 -8
27 -18 2 -74 -19 -42 -19 -44 -3 -57 17 -12 16 -13 -4 -14 -14 0 -23 6 -23 15
0 9 -8 40 -19 69 l-19 54 22 -5 c21 -5 21 -5 1 11 l-20 17 20 -5 c11 -2 30 -7
43 -11z m347 -134 c12 -40 -30 -76 -60 -51 -19 16 -19 35 1 54 21 22 51 20 59
-3z m-312 -143 c38 -52 -7 -117 -59 -83 -19 12 -24 24 -24 55 0 63 45 78 83
28z m204 0 c13 -12 23 -28 23 -36 0 -12 -6 -9 -25 8 -19 18 -28 20 -38 12 -21
-18 -29 -1 -10 20 20 23 22 23 50 -4z m-794 -21 c5 -34 86 -175 112 -197 21
-18 19 -4 -6 29 -12 16 -20 34 -18 39 2 6 19 -11 36 -38 24 -36 28 -48 15 -43
-10 4 -2 -11 20 -38 21 -24 72 -95 115 -156 42 -62 80 -113 84 -113 15 0 20
40 10 78 -12 42 -33 66 -68 76 -29 9 -71 43 -85 69 -11 21 -11 21 13 4 62 -46
159 -74 159 -47 0 6 -12 10 -27 11 -16 0 -37 4 -48 9 -14 6 -2 9 42 9 34 1 70
4 80 8 17 6 17 6 -1 -15 -18 -21 -18 -21 10 -13 16 4 39 22 51 40 l22 32 6
-45 c4 -24 4 -49 1 -55 -4 -5 16 5 45 24 41 28 60 35 98 34 77 -2 96 -10 99
-47 3 -34 -4 -40 -22 -18 -6 7 -24 17 -41 20 l-30 7 30 -19 c17 -11 38 -28 48
-40 17 -18 17 -25 6 -55 -11 -31 -10 -39 14 -81 22 -40 23 -46 9 -46 -9 -1
-48 -5 -87 -10 -41 -5 -74 -5 -79 0 -15 14 12 39 46 42 18 2 34 10 36 18 4 12
3 13 -10 3 -8 -7 -18 -10 -21 -7 -3 4 -22 -4 -41 -16 -57 -35 -86 -25 -119 40
-21 40 -27 64 -23 88 3 23 1 32 -7 29 -38 -12 -4 -123 66 -209 26 -33 47 -63
45 -68 -9 -25 -120 -130 -137 -130 -24 0 -65 48 -104 122 l-28 53 6 -40 c3
-22 8 -47 11 -55 5 -19 -129 -155 -144 -146 -5 3 -20 38 -32 78 -12 40 -27 84
-32 97 -8 21 -3 30 34 69 24 24 34 40 22 34 -11 -6 -37 -29 -57 -51 l-36 -40
-46 18 c-63 24 -75 39 -91 117 -8 38 -26 85 -39 104 -50 73 -62 162 -25 195
14 12 17 21 9 25 -7 5 0 16 18 30 30 24 32 24 -39 4 -13 -4 -36 -16 -53 -28
l-30 -21 16 25 c8 14 39 67 69 118 71 124 112 154 123 89z m852 -75 c-5 -6
-95 60 -95 69 0 5 22 -8 50 -29 27 -20 47 -38 45 -40z m100 36 l28 -21 -12 21
c-12 23 -9 25 27 16 16 -5 22 -14 22 -34 0 -31 -43 -80 -70 -80 -23 0 -90 74
-90 100 0 28 58 27 95 -2z m-839 -43 c16 -12 16 -14 3 -15 -9 0 -22 7 -29 15
-16 19 0 19 26 0z m444 -40 c-7 -8 -16 -15 -21 -15 -5 0 -9 7 -9 15 0 9 9 15
21 15 18 0 19 -2 9 -15z m-349 -55 c5 0 9 -5 9 -11 0 -15 -43 -7 -48 10 -3 10
0 12 12 8 10 -4 22 -7 27 -7z m108 -47 c28 -19 44 -23 71 -19 19 3 51 9 70 12
l35 6 -32 -33 c-30 -31 -34 -32 -60 -19 -28 13 -88 27 -150 35 -36 5 -45 -10
-12 -20 11 -4 19 -9 16 -11 -2 -2 -21 3 -41 11 -39 17 -44 41 -8 39 12 0 19 3
16 8 -9 14 31 9 54 -8 12 -8 22 -13 22 -9 0 3 -15 15 -32 26 -25 16 -27 19 -9
14 12 -4 39 -18 60 -32z m1131 -120 c0 -7 -64 8 -73 16 -4 4 0 29 9 55 l17 49
23 -58 c13 -32 24 -60 24 -62z m-1155 57 c3 -6 -1 -7 -9 -4 -18 7 -21 14 -7
14 6 0 13 -4 16 -10z m842 -137 c-3 -10 -5 -2 -5 17 0 19 2 27 5 18 2 -10 2
-26 0 -35z m223 -240 c80 -52 146 -98 148 -103 4 -12 -32 -16 -442 -55 -313
-30 -381 -34 -391 -23 -7 7 -28 43 -47 79 -34 63 -35 66 -17 77 13 8 19 24 19
47 0 27 4 35 18 35 52 1 525 39 529 44 9 9 37 -7 183 -101z"/>
<path d="M866 1221 c-4 -5 8 -21 25 -36 23 -19 34 -23 39 -14 6 8 24 10 59 5
77 -10 62 9 -27 33 -90 24 -89 24 -96 12z"/>
<path d="M770 1050 c0 -5 9 -10 19 -10 11 0 29 -12 40 -26 12 -15 21 -22 21
-17 0 20 -42 63 -61 63 -10 0 -19 -4 -19 -10z"/>
<path d="M414 1076 c-10 -8 -15 -18 -11 -22 4 -4 15 0 24 9 22 21 12 31 -13
13z"/>
<path d="M562 1009 c-13 -5 -28 -7 -33 -3 -5 3 -9 -2 -9 -10 0 -12 -10 -16
-39 -16 l-39 0 28 -30 c15 -16 36 -30 47 -30 14 0 15 2 4 9 -23 15 -5 38 34
45 20 4 38 6 39 4 36 -50 46 -70 46 -86 0 -24 -16 -38 -23 -20 -4 8 -6 7 -6
-3 -1 -23 24 -31 55 -17 25 12 25 12 5 20 -14 5 -21 16 -21 33 0 15 -6 36 -12
48 -7 12 -13 31 -13 41 0 22 -29 29 -63 15z"/>
<path d="M390 921 c0 -18 65 -71 87 -71 14 0 60 -53 68 -80 3 -11 13 -20 21
-20 12 0 11 5 -5 26 -12 15 -21 37 -21 49 0 17 -10 27 -37 38 -21 8 -48 29
-61 46 -25 35 -52 41 -52 12z"/>
<path d="M670 838 c-14 -5 -42 -7 -62 -5 -35 5 -37 3 -27 -14 11 -21 34 -25
44 -9 4 6 14 8 24 5 9 -3 26 1 37 9 25 19 16 26 -16 14z"/>
<path d="M200 780 l-35 -19 28 -1 c40 0 102 -34 127 -70 11 -16 26 -58 31 -92
6 -34 12 -64 13 -66 8 -7 44 83 38 94 -12 21 -153 174 -160 174 -4 -1 -23 -9
-42 -20z"/>
<path d="M224 669 c54 -33 56 -49 4 -24 l-33 16 25 -22 c14 -12 25 -25 25 -30
0 -11 97 -90 103 -84 16 15 -81 135 -130 161 -47 25 -44 15 6 -17z"/>
<path d="M927 504 c23 -44 20 -77 -3 -47 -14 19 -17 9 -5 -21 7 -17 9 -16 30
12 l22 32 -31 32 -32 32 19 -40z"/>
<path d="M385 459 c17 -31 14 -35 -16 -19 -12 7 -19 7 -19 1 0 -6 10 -16 23
-22 27 -14 66 -59 67 -78 0 -7 -16 -31 -35 -52 -35 -39 -44 -59 -25 -59 6 0
24 23 41 50 23 37 37 50 54 50 13 0 27 5 30 10 10 17 23 11 28 -12 4 -19 4
-19 6 5 1 36 -73 118 -129 140 l-40 15 15 -29z"/>
<path d="M835 441 c-3 -5 4 -13 16 -16 23 -8 34 -1 24 14 -8 13 -32 14 -40 2z"/>
<path d="M1200 851 c0 -5 5 -13 10 -16 6 -3 10 -2 10 4 0 5 -4 13 -10 16 -5 3
-10 2 -10 -4z"/>
<path d="M1109 293 c-12 -16 -12 -17 1 -7 8 6 22 14 30 17 13 5 12 6 -1 6 -9
1 -23 -7 -30 -16z"/>
<path d="M1328 278 c5 -5 16 -8 23 -6 8 3 3 7 -10 11 -17 4 -21 3 -13 -5z"/>
<path d="M1102 258 c7 -22 54 -33 83 -20 14 6 25 16 25 21 0 6 -13 3 -29 -6
-27 -16 -30 -16 -56 1 -19 13 -26 14 -23 4z"/>
<path d="M1320 232 c-52 -42 23 -114 93 -90 39 14 62 50 47 77 -6 12 -16 21
-22 21 -6 0 -3 -9 7 -20 21 -24 10 -43 -35 -58 -22 -8 -36 -6 -61 6 -58 30
-45 62 28 73 l48 6 -41 2 c-27 1 -50 -5 -64 -17z"/>
<path d="M1000 227 c-35 -17 -40 -69 -8 -91 33 -23 103 -21 128 4 60 60 -36
130 -120 87z m108 -13 c12 -8 22 -21 22 -29 0 -21 -40 -45 -75 -45 -37 0 -75
25 -75 49 0 37 87 54 128 25z"/>
<path d="M1267 195 c-8 -18 -58 -20 -76 -2 -11 10 -13 9 -9 -3 6 -21 71 -25
88 -5 7 8 11 18 8 21 -3 3 -8 -2 -11 -11z"/>
<path d="M1230 1076 c0 -28 30 -86 51 -96 11 -7 31 -9 44 -6 13 3 27 2 30 -4
3 -5 14 -10 23 -10 13 1 11 5 -9 23 -14 12 -29 30 -32 39 -8 23 -107 74 -107
54z m80 -81 c14 -8 21 -14 15 -14 -5 0 -21 6 -35 14 -14 8 -20 14 -15 14 6 0
21 -6 35 -14z"/>
<path d="M870 890 c0 -5 5 -10 11 -10 5 0 7 5 4 10 -3 6 -8 10 -11 10 -2 0 -4
-4 -4 -10z"/>
<path d="M940 812 c0 -5 7 -16 16 -23 14 -12 16 -11 13 5 -4 20 -29 35 -29 18z"/>
<path d="M790 775 c0 -8 7 -15 16 -15 14 0 14 3 4 15 -7 8 -14 15 -16 15 -2 0
-4 -7 -4 -15z"/>
<path d="M848 763 c6 -2 18 -2 25 0 6 3 1 5 -13 5 -14 0 -19 -2 -12 -5z"/>
<path d="M1135 600 c-41 -21 -38 -21 34 1 32 10 43 9 56 -1 12 -10 15 -10 15
4 0 23 -55 21 -105 -4z"/>
</g>
</svg>
