<svg width="30" height="20" viewBox="0 0 30 20" fill="none" xmlns="http://www.w3.org/2000/svg">
<g clip-path="url(#clip0_15_77)">
<rect width="30" height="20" fill="white"/>
<path d="M16.875 0.020874H13.125V8.13H0V11.8727H13.125V19.9818H16.875V11.8727H30V8.13H16.875V0.020874Z" fill="#EF1522"/>
<path d="M23.0732 13.4713L29.9999 17.312V13.4713H23.0732Z" fill="#0052B4"/>
<path d="M18.2607 13.4713L29.9999 19.9803V18.1397L21.5804 13.4713H18.2607Z" fill="#0052B4"/>
<path d="M26.873 19.9803L18.2607 15.2046V19.9803H26.873Z" fill="#0052B4"/>
<path d="M18.2607 13.4713L29.9999 19.9803V18.1397L21.5804 13.4713H18.2607Z" fill="#F0F0F0"/>
<path d="M18.2607 13.4713L29.9999 19.9803V18.1397L21.5804 13.4713H18.2607Z" fill="#EF1522"/>
<path d="M5.29342 13.4711L0 16.4062V13.4711H5.29342Z" fill="#0052B4"/>
<path d="M11.7392 14.2988V19.9802H1.49365L11.7392 14.2988Z" fill="#0052B4"/>
<path d="M8.41951 13.4713L0 18.1397V19.9803L11.7391 13.4713H8.41951Z" fill="#EF1522"/>
<path d="M6.92666 6.52832L0 2.68762V6.52832H6.92666Z" fill="#0052B4"/>
<path d="M11.7391 6.52933L0 0.0203247V1.86091L8.41951 6.52933H11.7391Z" fill="#0052B4"/>
<path d="M3.12695 0.0193481L11.7392 4.79502V0.0193481H3.12695Z" fill="#0052B4"/>
<path d="M11.7391 6.52988L0 0.020874V1.86146L8.41951 6.52988H11.7391Z" fill="#F0F0F0"/>
<path d="M11.7391 6.52988L0 0.020874V1.86146L8.41951 6.52988H11.7391Z" fill="#EF1522"/>
<path d="M24.7065 6.52841L30 3.59332V6.52841H24.7065Z" fill="#0052B4"/>
<path d="M18.2607 5.70167V0.0203247H28.5063L18.2607 5.70167Z" fill="#0052B4"/>
<path d="M21.5804 6.52927L29.9999 1.86085V0.0202637L18.2607 6.52927H21.5804Z" fill="#EF1522"/>
</g>
<defs>
<clipPath id="clip0_15_77">
<rect width="30" height="20" fill="white"/>
</clipPath>
</defs>
</svg>
